<svg width="32" height="32" viewBox="0 0 32 32" fill="none" xmlns="http://www.w3.org/2000/svg">
<path d="M14.2969 10.4451C15.3329 9.85161 16.667 9.85167 17.703 10.4451C18.5936 10.9555 19.1309 11.8302 19.1309 12.7686V12.8691C19.131 13.1223 19.2054 13.3713 19.3459 13.5918L19.5936 13.9807C20.2512 15.0123 20.1003 16.2988 19.2168 17.1888C18.853 17.5551 18.3866 17.8308 17.8648 17.9882L17.3507 18.1435C17.182 18.1944 17.0105 18.2352 16.8374 18.2664V21.2599C16.8374 21.6687 16.4626 22 16.0004 22C15.5381 22 15.1634 21.6687 15.1634 21.2599V18.2664C14.99 18.2351 14.8182 18.1945 14.6492 18.1435L14.1351 17.9882C13.6133 17.8308 13.1469 17.5552 12.7832 17.1888C11.8997 16.2989 11.7489 15.0123 12.4063 13.9807L12.654 13.5918C12.7945 13.3713 12.8681 13.1222 12.8682 12.8691V12.7686C12.8682 11.8302 13.4064 10.9555 14.2969 10.4451Z" fill="#9DC1A9"/>
</svg>
