<svg width="20" height="20" viewBox="0 0 20 20" fill="none" xmlns="http://www.w3.org/2000/svg">
<path d="M5.66667 3C5.85076 3 6 3.22386 6 3.5C6 3.77614 5.85076 4 5.66667 4H2.33333C2.14924 4 2 3.77614 2 3.5C2 3.22386 2.14924 3 2.33333 3H5.66667Z" fill="#C3D5DA"/>
<path d="M9.66667 6C9.85076 6 10 6.22386 10 6.5C10 6.77614 9.85076 7 9.66667 7H6.33333C6.14924 7 6 6.77614 6 6.5C6 6.22386 6.14924 6 6.33333 6H9.66667Z" fill="#C3D5DA"/>
<path d="M14.5833 3C14.8135 3 15 3.22386 15 3.5C15 3.77614 14.8135 4 14.5833 4H10.4167C10.1865 4 10 3.77614 10 3.5C10 3.22386 10.1865 3 10.4167 3H14.5833Z" fill="#C3D5DA"/>
<path d="M9.58333 13C9.81345 13 10 13.2239 10 13.5C10 13.7761 9.81345 14 9.58333 14H5.41667C5.18655 14 5 13.7761 5 13.5C5 13.2239 5.18655 13 5.41667 13H9.58333Z" fill="#C3D5DA"/>
<path d="M13.6667 16C13.8508 16 14 16.2239 14 16.5C14 16.7761 13.8508 17 13.6667 17H10.3333C10.1492 17 10 16.7761 10 16.5C10 16.2239 10.1492 16 10.3333 16H13.6667Z" fill="#C3D5DA"/>
<path d="M17.6667 13C17.8508 13 18 13.2239 18 13.5C18 13.7761 17.8508 14 17.6667 14H14.3333C14.1492 14 14 13.7761 14 13.5C14 13.2239 14.1492 13 14.3333 13H17.6667Z" fill="#C3D5DA"/>
</svg>
