<svg width="256" height="30" viewBox="0 0 256 30" fill="none" xmlns="http://www.w3.org/2000/svg">
<path d="M15.86 22.698H0.26V21.892L2.704 19.968V4.212L0 3.302L0.52 2.262H15.6L17.004 1.794V7.774L16.224 8.034L13.13 3.432H5.954V11.674H10.036L11.934 8.346H12.74V16.25L11.7 16.77L10.062 12.844H5.954V21.528H13.026L16.484 16.406L17.264 16.666V23.166L15.86 22.698Z" fill="#06554B"/>
<path d="M35.0078 22.698H31.1338L27.0518 17.238L24.1658 19.942L26.5838 21.684L26.0638 22.724H20.3698V21.918L26.3238 16.25L22.5538 11.362L20.2658 9.932L20.7858 8.892H24.6598L28.6898 14.274L31.4718 11.674L29.0538 9.932L29.5738 8.892H35.2678V9.698L29.4178 15.262L33.2138 20.202L35.5278 21.658L35.0078 22.698Z" fill="#06554B"/>
<path d="M45.412 22.984C44.476 22.984 43.6094 22.698 42.812 22.126V27.17L46.452 28.288L45.932 29.328H37.378V28.522L39.692 26.702V12.74L37.378 11.388V10.582L41.824 8.398L42.682 11.778L46.4 8.84C46.9547 8.70133 47.5874 8.632 48.298 8.632C49.234 8.632 50.0747 8.93533 50.82 9.542C51.5827 10.1313 52.172 10.9373 52.588 11.96C53.0214 12.9827 53.238 14.1093 53.238 15.34C53.238 16.6747 52.8307 17.9313 52.016 19.11C51.2014 20.2713 50.1787 21.2073 48.948 21.918C47.7347 22.6113 46.556 22.958 45.412 22.958V22.984ZM46.972 11.128C46.3134 11.128 45.672 11.258 45.048 11.518C44.424 11.778 43.6787 12.2893 42.812 13.052V17.446C42.812 18.3993 43.1674 19.1967 43.878 19.838C44.5887 20.4793 45.6027 20.8 46.92 20.8C48.8787 20.8 49.858 19.4047 49.858 16.614C49.858 15.0713 49.6067 13.7713 49.104 12.714C48.6014 11.6567 47.8907 11.128 46.972 11.128Z" fill="#06554B"/>
<path d="M65.3632 22.75C64.6699 22.8887 63.8379 22.958 62.8672 22.958C61.7232 22.958 60.6919 22.6633 59.7732 22.074C58.8719 21.4673 58.1612 20.6527 57.6412 19.63C57.1385 18.6073 56.8872 17.4807 56.8872 16.25C56.8872 14.9153 57.2945 13.6673 58.1092 12.506C58.9239 11.3273 59.9379 10.3913 61.1512 9.698C62.3819 8.98733 63.5692 8.632 64.7132 8.632C66.3599 8.632 67.6339 9.282 68.5352 10.582C69.4539 11.882 69.9132 13.598 69.9132 15.73H60.2932C60.3972 17.2033 60.7959 18.408 61.4892 19.344C62.1999 20.28 63.1619 20.748 64.3752 20.748C65.5019 20.748 67.1052 19.8727 69.1852 18.122L69.9652 19.11L65.3632 22.75ZM63.2052 10.816C61.3332 10.816 60.3539 12.0987 60.2672 14.664H66.3512C66.1952 13.728 66.0305 13.0173 65.8572 12.532C65.7012 12.0293 65.4152 11.622 64.9992 11.31C64.6005 10.9807 64.0025 10.816 63.2052 10.816Z" fill="#06554B"/>
<path d="M80.9002 8.632C81.6109 8.632 82.4342 8.736 83.3702 8.944C84.3236 9.13467 85.0082 9.35133 85.4242 9.594V13.598H84.4362C83.7602 12.7313 82.9802 12.0553 82.0962 11.57C81.2296 11.0673 80.3282 10.816 79.3922 10.816C78.5949 10.816 77.9882 11.1713 77.5722 11.882C77.1736 12.5927 76.9742 13.6327 76.9742 15.002C76.9742 16.6313 77.3296 18.0007 78.0402 19.11C78.7509 20.202 79.7649 20.748 81.0822 20.748C82.0702 20.748 83.4742 20.0373 85.2942 18.616L86.0742 19.604L82.0702 22.75C81.3769 22.8887 80.5449 22.958 79.5742 22.958C78.4302 22.958 77.3989 22.6633 76.4802 22.074C75.5789 21.4673 74.8682 20.6527 74.3482 19.63C73.8456 18.6073 73.5942 17.4807 73.5942 16.25C73.5942 14.9153 73.9669 13.6587 74.7122 12.48C75.4749 11.3013 76.4282 10.3653 77.5722 9.672C78.7162 8.97867 79.8256 8.632 80.9002 8.632Z" fill="#06554B"/>
<path d="M96.5595 22.75C96.1609 22.8887 95.6755 22.958 95.1035 22.958C93.6649 22.958 92.6075 22.5853 91.9315 21.84C91.2729 21.0773 90.9435 19.9073 90.9435 18.33V10.738H88.1355V9.672L91 9L93.0755 3.926H94.0635V9.672H98.7435V10.738H94.0635V18.642C94.0635 20.046 94.7395 20.748 96.0915 20.748C96.4555 20.748 96.8022 20.67 97.1315 20.514C97.4782 20.358 97.9029 20.0807 98.4055 19.682L99.1855 20.67L96.5595 22.75Z" fill="#06554B"/>
<path d="M109.619 22.75C108.926 22.8887 108.094 22.958 107.123 22.958C105.979 22.958 104.948 22.6633 104.029 22.074C103.128 21.4673 102.417 20.6527 101.897 19.63C101.394 18.6073 101.143 17.4807 101.143 16.25C101.143 14.9153 101.55 13.6673 102.365 12.506C103.18 11.3273 104.194 10.3913 105.407 9.698C106.638 8.98733 107.825 8.632 108.969 8.632C110.616 8.632 111.89 9.282 112.791 10.582C113.71 11.882 114.169 13.598 114.169 15.73H104.549C104.653 17.2033 105.052 18.408 105.745 19.344C106.456 20.28 107.418 20.748 108.631 20.748C109.758 20.748 111.361 19.8727 113.441 18.122L114.221 19.11L109.619 22.75ZM107.461 10.816C105.589 10.816 104.61 12.0987 104.523 14.664H110.607C110.451 13.728 110.286 13.0173 110.113 12.532C109.957 12.0293 109.671 11.622 109.255 11.31C108.856 10.9807 108.258 10.816 107.461 10.816Z" fill="#06554B"/>
<path d="M133.164 22.698H128.224V20.826L125.806 22.75C125.251 22.8887 124.584 22.958 123.804 22.958C122.66 22.958 121.629 22.6633 120.71 22.074C119.809 21.4673 119.098 20.6527 118.578 19.63C118.075 18.6073 117.824 17.4807 117.824 16.25C117.824 14.9153 118.231 13.6673 119.046 12.506C119.861 11.3273 120.875 10.3913 122.088 9.698C123.319 8.98733 124.506 8.632 125.65 8.632C126.603 8.632 127.47 8.90067 128.25 9.438V4.082L125.936 2.47V1.664L130.382 0H131.37V20.748L133.684 21.658L133.164 22.698ZM125.13 20.748C125.65 20.748 126.144 20.6787 126.612 20.54C127.097 20.384 127.635 20.098 128.224 19.682V13.754C128.12 12.8873 127.713 12.1853 127.002 11.648C126.309 11.0933 125.355 10.816 124.142 10.816C122.183 10.816 121.204 12.2113 121.204 15.002C121.204 16.6313 121.542 18.0007 122.218 19.11C122.894 20.202 123.865 20.748 125.13 20.748Z" fill="#06554B"/>
<path d="M148.878 20.124C148.878 20.8173 148.895 21.4587 148.93 22.048C148.982 22.62 149.042 23.01 149.112 23.218L144.12 29.562L143.132 28.782C144.12 27.534 144.779 26.4767 145.108 25.61C145.455 24.7433 145.628 23.6773 145.628 22.412V4.316L142.404 3.302L142.924 2.262H151.348V3.068L148.878 4.992V20.124Z" fill="#06554B"/>
<path d="M162.289 8.632C163.433 8.632 164.456 8.93533 165.357 9.542C166.276 10.1313 166.987 10.9373 167.489 11.96C168.009 12.9827 168.269 14.1093 168.269 15.34C168.269 16.6747 167.862 17.9313 167.047 19.11C166.233 20.2713 165.21 21.2073 163.979 21.918C162.766 22.6113 161.587 22.958 160.443 22.958C159.299 22.958 158.268 22.6633 157.349 22.074C156.448 21.4673 155.737 20.6527 155.217 19.63C154.715 18.6073 154.463 17.4807 154.463 16.25C154.463 14.9153 154.871 13.6673 155.685 12.506C156.5 11.3273 157.514 10.3913 158.727 9.698C159.958 8.98733 161.145 8.632 162.289 8.632ZM160.781 10.816C158.823 10.816 157.843 12.2113 157.843 15.002C157.843 16.6487 158.199 18.0267 158.909 19.136C159.62 20.228 160.634 20.774 161.951 20.774C163.91 20.774 164.889 19.37 164.889 16.562C164.889 14.9327 164.534 13.572 163.823 12.48C163.113 11.3707 162.099 10.816 160.781 10.816Z" fill="#06554B"/>
<path d="M186.323 22.698H181.383V19.994L178.081 22.75C177.717 22.8887 177.24 22.958 176.651 22.958C175.472 22.958 174.536 22.6027 173.843 21.892C173.15 21.164 172.803 20.1847 172.803 18.954V12.74L170.489 11.388V10.582L174.935 8.398H175.923V17.654C175.923 18.6073 176.07 19.2747 176.365 19.656C176.66 20.0373 177.188 20.228 177.951 20.228C178.488 20.228 179.017 20.1327 179.537 19.942C180.057 19.734 180.672 19.3353 181.383 18.746V12.74L179.069 11.388V10.582L183.515 8.398H184.503V20.748L186.843 21.658L186.323 22.698Z" fill="#06554B"/>
<path d="M198.575 8.658C199.147 8.658 199.649 8.814 200.083 9.126C200.516 9.438 200.854 9.87133 201.097 10.426L199.381 12.584H198.393C198.323 12.1507 198.193 11.8473 198.003 11.674C197.829 11.4833 197.587 11.388 197.275 11.388C196.893 11.388 196.486 11.492 196.053 11.7C195.637 11.8907 195.16 12.2633 194.623 12.818V20.566L198.263 21.684L197.743 22.724H189.189V21.918L191.503 20.098V12.74L189.189 11.388V10.582L193.635 8.398L194.441 11.596L197.145 8.84C197.509 8.70133 197.985 8.632 198.575 8.632V8.658Z" fill="#06554B"/>
<path d="M218.765 22.724H213.825V13.962C213.825 13.0087 213.678 12.3413 213.383 11.96C213.088 11.5787 212.56 11.388 211.797 11.388C211.225 11.388 210.653 11.492 210.081 11.7C209.526 11.908 208.868 12.3067 208.105 12.896V20.774L210.445 21.684L209.925 22.724H202.671V21.918L204.985 20.098V12.74L202.671 11.388V10.582L207.117 8.398L207.975 11.778L211.667 8.84C212.031 8.70133 212.508 8.632 213.097 8.632C214.276 8.632 215.212 8.996 215.905 9.724C216.598 10.4347 216.945 11.4053 216.945 12.636V20.748L219.285 21.684L218.765 22.724Z" fill="#06554B"/>
<path d="M230.225 22.75C229.531 22.8887 228.699 22.958 227.729 22.958C226.585 22.958 225.553 22.6633 224.635 22.074C223.733 21.4673 223.023 20.6527 222.503 19.63C222 18.6073 221.749 17.4807 221.749 16.25C221.749 14.9153 222.156 13.6673 222.971 12.506C223.785 11.3273 224.799 10.3913 226.013 9.698C227.243 8.98733 228.431 8.632 229.575 8.632C231.221 8.632 232.495 9.282 233.397 10.582C234.315 11.882 234.775 13.598 234.775 15.73H225.155C225.259 17.2033 225.657 18.408 226.351 19.344C227.061 20.28 228.023 20.748 229.237 20.748C230.363 20.748 231.967 19.8727 234.047 18.122L234.827 19.11L230.225 22.75ZM228.067 10.816C226.195 10.816 225.215 12.0987 225.129 14.664H231.213C231.057 13.728 230.892 13.0173 230.719 12.532C230.563 12.0293 230.277 11.622 229.861 11.31C229.462 10.9807 228.864 10.816 228.067 10.816Z" fill="#06554B"/>
<path d="M251.794 9.698L245.216 22.698L239.808 29.562L238.82 28.782C239.808 27.7247 240.553 26.7973 241.056 26C241.576 25.2027 241.94 24.3967 242.148 23.582C242.356 22.7847 242.46 21.8313 242.46 20.722L239.184 12.792L236.766 11.388V10.582L241.212 8.398L242.2 12.324L245.372 20.072L249.038 12.454L245.58 9.932L246.1 8.892H251.794V9.698Z" fill="#06554B"/>
<path d="M0.26 29.33H138.5L144.12 29.56L143.13 28.78L138.64 28.29H0.26V29.33Z" fill="#06554B"/>
<path d="M255.5 2.25999H153.58L153.58 3.07L252.202 3.3L254.15 5L255.5 2.25999Z" fill="#06554B"/>
<path fill-rule="evenodd" clip-rule="evenodd" d="M162.5 5.63477C162.799 5.80773 163 6.13003 163 6.5C163 7.05228 162.552 7.5 162 7.5C161.448 7.5 161 7.05228 161 6.5C161 6.13003 161.201 5.80773 161.5 5.63477V3H162.5V5.63477ZM162 6C161.724 6 161.5 6.22386 161.5 6.5C161.5 6.77614 161.724 7 162 7C162.276 7 162.5 6.77614 162.5 6.5C162.5 6.22386 162.276 6 162 6Z" fill="#06554B"/>
<path fill-rule="evenodd" clip-rule="evenodd" d="M229.5 5.63477C229.799 5.80773 230 6.13003 230 6.5C230 7.05228 229.552 7.5 229 7.5C228.448 7.5 228 7.05228 228 6.5C228 6.13003 228.201 5.80773 228.5 5.63477V3H229.5V5.63477ZM229 6C228.724 6 228.5 6.22386 228.5 6.5C228.5 6.77614 228.724 7 229 7C229.276 7 229.5 6.77614 229.5 6.5C229.5 6.22386 229.276 6 229 6Z" fill="#06554B"/>
<path fill-rule="evenodd" clip-rule="evenodd" d="M195.5 5.63477C195.799 5.80773 196 6.13003 196 6.5C196 7.05228 195.552 7.5 195 7.5C194.448 7.5 194 7.05228 194 6.5C194 6.13003 194.201 5.80773 194.5 5.63477V3H195.5V5.63477ZM195 6C194.724 6 194.5 6.22386 194.5 6.5C194.5 6.77614 194.724 7 195 7C195.276 7 195.5 6.77614 195.5 6.5C195.5 6.22386 195.276 6 195 6Z" fill="#06554B"/>
</svg>
