<svg width="311" height="36" viewBox="0 0 311 36" fill="none" xmlns="http://www.w3.org/2000/svg">
    <path d="M19.3051 27.6412H0.316478V26.6596L3.29137 24.3166V5.12929L0 4.02111L0.632955 2.75462H18.9887L20.6976 2.1847V9.46702L19.7482 9.78364L15.9821 4.17942H7.24734V14.2164H12.216L14.5263 10.1636H15.5074V19.7889L14.2415 20.4222L12.2477 15.6412H7.24734V26.2164H15.8555L20.0647 19.9789L21.0141 20.2955V28.2111L19.3051 27.6412Z" fill="#03AD81"/>
    <path d="M19.3051 27.6412H0.316478V26.6596L3.29137 24.3166V5.12929L0 4.02111L0.632955 2.75462H18.9887L20.6976 2.1847V9.46702L19.7482 9.78364L15.9821 4.17942H7.24734V14.2164H12.216L14.5263 10.1636H15.5074V19.7889L14.2415 20.4222L12.2477 15.6412H7.24734V26.2164H15.8555L20.0647 19.9789L21.0141 20.2955V28.2111L19.3051 27.6412Z" fill="url(#paint0_linear_163_339)"/>
    <path d="M42.6122 27.6412H37.8967L32.928 20.9921L29.4151 24.285L32.3583 26.4063L31.7254 27.6728H24.7945V26.6913L32.0419 19.7889L27.4529 13.8364L24.6679 12.095L25.3009 10.8285H30.0164L34.9218 17.3826L38.3081 14.2164L35.3649 12.095L35.9978 10.8285H42.9287V11.81L35.8079 18.5858L40.4285 24.6016L43.2452 26.3747L42.6122 27.6412Z" fill="#03AD81"/>
    <path d="M42.6122 27.6412H37.8967L32.928 20.9921L29.4151 24.285L32.3583 26.4063L31.7254 27.6728H24.7945V26.6913L32.0419 19.7889L27.4529 13.8364L24.6679 12.095L25.3009 10.8285H30.0164L34.9218 17.3826L38.3081 14.2164L35.3649 12.095L35.9978 10.8285H42.9287V11.81L35.8079 18.5858L40.4285 24.6016L43.2452 26.3747L42.6122 27.6412Z" fill="url(#paint1_linear_163_339)"/>
    <path d="M55.2765 27.9894C54.1372 27.9894 53.0823 27.6412 52.1117 26.9446V33.0871L56.5424 34.4485L55.9095 35.715H45.4973V34.7335L48.314 32.5172V15.5145L45.4973 13.8681V12.8865L50.9091 10.2269L51.9535 14.343L56.4791 10.7652C57.1543 10.5963 57.9244 10.5119 58.7894 10.5119C59.9287 10.5119 60.952 10.8813 61.8592 11.6201C62.7876 12.3377 63.5049 13.3193 64.0113 14.5646C64.5387 15.81 64.8025 17.1821 64.8025 18.6807C64.8025 20.3061 64.3067 21.8364 63.315 23.2718C62.3234 24.686 61.0786 25.8259 59.5806 26.6913C58.1037 27.5356 56.669 27.9578 55.2765 27.9578V27.9894ZM57.1754 13.5515C56.3736 13.5515 55.593 13.7098 54.8334 14.0264C54.0739 14.343 53.1667 14.9657 52.1117 15.8945V21.2454C52.1117 22.4063 52.5443 23.3773 53.4093 24.1583C54.2743 24.9393 55.5086 25.3298 57.1121 25.3298C59.4962 25.3298 60.6883 23.6306 60.6883 20.2322C60.6883 18.3536 60.3823 16.7704 59.7705 15.4829C59.1586 14.1953 58.2936 13.5515 57.1754 13.5515Z" fill="#03AD81"/>
    <path d="M55.2765 27.9894C54.1372 27.9894 53.0823 27.6412 52.1117 26.9446V33.0871L56.5424 34.4485L55.9095 35.715H45.4973V34.7335L48.314 32.5172V15.5145L45.4973 13.8681V12.8865L50.9091 10.2269L51.9535 14.343L56.4791 10.7652C57.1543 10.5963 57.9244 10.5119 58.7894 10.5119C59.9287 10.5119 60.952 10.8813 61.8592 11.6201C62.7876 12.3377 63.5049 13.3193 64.0113 14.5646C64.5387 15.81 64.8025 17.1821 64.8025 18.6807C64.8025 20.3061 64.3067 21.8364 63.315 23.2718C62.3234 24.686 61.0786 25.8259 59.5806 26.6913C58.1037 27.5356 56.669 27.9578 55.2765 27.9578V27.9894ZM57.1754 13.5515C56.3736 13.5515 55.593 13.7098 54.8334 14.0264C54.0739 14.343 53.1667 14.9657 52.1117 15.8945V21.2454C52.1117 22.4063 52.5443 23.3773 53.4093 24.1583C54.2743 24.9393 55.5086 25.3298 57.1121 25.3298C59.4962 25.3298 60.6883 23.6306 60.6883 20.2322C60.6883 18.3536 60.3823 16.7704 59.7705 15.4829C59.1586 14.1953 58.2936 13.5515 57.1754 13.5515Z" fill="url(#paint2_linear_163_339)"/>
    <path d="M79.5615 27.7045C78.7175 27.8734 77.7048 27.9578 76.5233 27.9578C75.1308 27.9578 73.8754 27.5989 72.7572 26.8813C71.6601 26.1425 70.795 25.1504 70.1621 23.905C69.5502 22.6596 69.2443 21.2876 69.2443 19.7889C69.2443 18.1636 69.7401 16.6438 70.7317 15.2296C71.7234 13.7942 72.9576 12.6544 74.4345 11.81C75.9325 10.9446 77.3778 10.5119 78.7703 10.5119C80.7746 10.5119 82.3254 11.3034 83.4225 12.8865C84.5407 14.4697 85.0998 16.5594 85.0998 19.1557H73.3901C73.5167 20.9499 74.002 22.4169 74.8459 23.5567C75.711 24.6966 76.882 25.2665 78.3588 25.2665C79.7302 25.2665 81.6819 24.2005 84.2137 22.0686L85.1631 23.2718L79.5615 27.7045ZM76.9347 13.1715C74.6561 13.1715 73.464 14.7335 73.3585 17.8575H80.7641C80.5742 16.7177 80.3737 15.8522 80.1628 15.2612C79.9729 14.6491 79.6248 14.153 79.1184 13.7731C78.6331 13.372 77.9052 13.1715 76.9347 13.1715Z" fill="#03AD81"/>
    <path d="M79.5615 27.7045C78.7175 27.8734 77.7048 27.9578 76.5233 27.9578C75.1308 27.9578 73.8754 27.5989 72.7572 26.8813C71.6601 26.1425 70.795 25.1504 70.1621 23.905C69.5502 22.6596 69.2443 21.2876 69.2443 19.7889C69.2443 18.1636 69.7401 16.6438 70.7317 15.2296C71.7234 13.7942 72.9576 12.6544 74.4345 11.81C75.9325 10.9446 77.3778 10.5119 78.7703 10.5119C80.7746 10.5119 82.3254 11.3034 83.4225 12.8865C84.5407 14.4697 85.0998 16.5594 85.0998 19.1557H73.3901C73.5167 20.9499 74.002 22.4169 74.8459 23.5567C75.711 24.6966 76.882 25.2665 78.3588 25.2665C79.7302 25.2665 81.6819 24.2005 84.2137 22.0686L85.1631 23.2718L79.5615 27.7045ZM76.9347 13.1715C74.6561 13.1715 73.464 14.7335 73.3585 17.8575H80.7641C80.5742 16.7177 80.3737 15.8522 80.1628 15.2612C79.9729 14.6491 79.6248 14.153 79.1184 13.7731C78.6331 13.372 77.9052 13.1715 76.9347 13.1715Z" fill="url(#paint3_linear_163_339)"/>
    <path d="M98.4735 10.5119C99.3385 10.5119 100.341 10.6385 101.48 10.8918C102.64 11.124 103.474 11.3879 103.98 11.6834V16.5594H102.778C101.955 15.504 101.005 14.6807 99.9293 14.0897C98.8743 13.4776 97.7772 13.1715 96.6379 13.1715C95.6674 13.1715 94.9289 13.6042 94.4225 14.4697C93.9373 15.3351 93.6946 16.6016 93.6946 18.2691C93.6946 20.2533 94.1272 21.9208 94.9922 23.2718C95.8572 24.6016 97.0915 25.2665 98.695 25.2665C99.8976 25.2665 101.607 24.4011 103.822 22.6702L104.771 23.8734L99.8976 27.7045C99.0537 27.8734 98.0409 27.9578 96.8594 27.9578C95.4669 27.9578 94.2116 27.5989 93.0933 26.8813C91.9962 26.1425 91.1312 25.1504 90.4982 23.905C89.8864 22.6596 89.5804 21.2876 89.5804 19.7889C89.5804 18.1636 90.0341 16.6332 90.9413 15.1979C91.8696 13.7625 93.03 12.6227 94.4225 11.7784C95.815 10.934 97.1654 10.5119 98.4735 10.5119Z" fill="#03AD81"/>
    <path d="M98.4735 10.5119C99.3385 10.5119 100.341 10.6385 101.48 10.8918C102.64 11.124 103.474 11.3879 103.98 11.6834V16.5594H102.778C101.955 15.504 101.005 14.6807 99.9293 14.0897C98.8743 13.4776 97.7772 13.1715 96.6379 13.1715C95.6674 13.1715 94.9289 13.6042 94.4225 14.4697C93.9373 15.3351 93.6946 16.6016 93.6946 18.2691C93.6946 20.2533 94.1272 21.9208 94.9922 23.2718C95.8572 24.6016 97.0915 25.2665 98.695 25.2665C99.8976 25.2665 101.607 24.4011 103.822 22.6702L104.771 23.8734L99.8976 27.7045C99.0537 27.8734 98.0409 27.9578 96.8594 27.9578C95.4669 27.9578 94.2116 27.5989 93.0933 26.8813C91.9962 26.1425 91.1312 25.1504 90.4982 23.905C89.8864 22.6596 89.5804 21.2876 89.5804 19.7889C89.5804 18.1636 90.0341 16.6332 90.9413 15.1979C91.8696 13.7625 93.03 12.6227 94.4225 11.7784C95.815 10.934 97.1654 10.5119 98.4735 10.5119Z" fill="url(#paint4_linear_163_339)"/>
    <path d="M117.534 27.7045C117.049 27.8734 116.458 27.9578 115.762 27.9578C114.011 27.9578 112.724 27.504 111.901 26.5963C111.099 25.6675 110.698 24.2427 110.698 22.3219V13.0765H107.28V11.7784L110.767 10.96L113.294 4.781H114.496V11.7784H120.193V13.0765H114.496V22.7018C114.496 24.4116 115.319 25.2665 116.965 25.2665C117.408 25.2665 117.83 25.1715 118.231 24.9815C118.653 24.7916 119.169 24.4538 119.781 23.9683L120.731 25.1715L117.534 27.7045Z" fill="#03AD81"/>
    <path d="M117.534 27.7045C117.049 27.8734 116.458 27.9578 115.762 27.9578C114.011 27.9578 112.724 27.504 111.901 26.5963C111.099 25.6675 110.698 24.2427 110.698 22.3219V13.0765H107.28V11.7784L110.767 10.96L113.294 4.781H114.496V11.7784H120.193V13.0765H114.496V22.7018C114.496 24.4116 115.319 25.2665 116.965 25.2665C117.408 25.2665 117.83 25.1715 118.231 24.9815C118.653 24.7916 119.169 24.4538 119.781 23.9683L120.731 25.1715L117.534 27.7045Z" fill="url(#paint5_linear_163_339)"/>
    <path d="M133.431 27.7045C132.587 27.8734 131.574 27.9578 130.392 27.9578C129 27.9578 127.745 27.5989 126.626 26.8813C125.529 26.1425 124.664 25.1504 124.031 23.905C123.419 22.6596 123.113 21.2876 123.113 19.7889C123.113 18.1636 123.609 16.6438 124.601 15.2296C125.593 13.7942 126.827 12.6544 128.304 11.81C129.802 10.9446 131.247 10.5119 132.639 10.5119C134.644 10.5119 136.195 11.3034 137.292 12.8865C138.41 14.4697 138.969 16.5594 138.969 19.1557H127.259C127.386 20.9499 127.871 22.4169 128.715 23.5567C129.58 24.6966 130.751 25.2665 132.228 25.2665C133.599 25.2665 135.551 24.2005 138.083 22.0686L139.032 23.2718L133.431 27.7045ZM130.804 13.1715C128.525 13.1715 127.333 14.7335 127.228 17.8575H134.633C134.443 16.7177 134.243 15.8522 134.032 15.2612C133.842 14.6491 133.494 14.153 132.988 13.7731C132.502 13.372 131.774 13.1715 130.804 13.1715Z" fill="#03AD81"/>
    <path d="M133.431 27.7045C132.587 27.8734 131.574 27.9578 130.392 27.9578C129 27.9578 127.745 27.5989 126.626 26.8813C125.529 26.1425 124.664 25.1504 124.031 23.905C123.419 22.6596 123.113 21.2876 123.113 19.7889C123.113 18.1636 123.609 16.6438 124.601 15.2296C125.593 13.7942 126.827 12.6544 128.304 11.81C129.802 10.9446 131.247 10.5119 132.639 10.5119C134.644 10.5119 136.195 11.3034 137.292 12.8865C138.41 14.4697 138.969 16.5594 138.969 19.1557H127.259C127.386 20.9499 127.871 22.4169 128.715 23.5567C129.58 24.6966 130.751 25.2665 132.228 25.2665C133.599 25.2665 135.551 24.2005 138.083 22.0686L139.032 23.2718L133.431 27.7045ZM130.804 13.1715C128.525 13.1715 127.333 14.7335 127.228 17.8575H134.633C134.443 16.7177 134.243 15.8522 134.032 15.2612C133.842 14.6491 133.494 14.153 132.988 13.7731C132.502 13.372 131.774 13.1715 130.804 13.1715Z" fill="url(#paint6_linear_163_339)"/>
    <path d="M162.09 27.6412H156.077V25.3615L153.134 27.7045C152.459 27.8734 151.646 27.9578 150.697 27.9578C149.304 27.9578 148.049 27.5989 146.931 26.8813C145.834 26.1425 144.969 25.1504 144.336 23.905C143.724 22.6596 143.418 21.2876 143.418 19.7889C143.418 18.1636 143.914 16.6438 144.905 15.2296C145.897 13.7942 147.131 12.6544 148.608 11.81C150.106 10.9446 151.551 10.5119 152.944 10.5119C154.104 10.5119 155.159 10.8391 156.109 11.4934V4.97098L153.292 3.00791V2.02639L158.704 0H159.906V25.2665L162.723 26.3747L162.09 27.6412ZM152.311 25.2665C152.944 25.2665 153.545 25.1821 154.115 25.0132C154.706 24.8232 155.36 24.4749 156.077 23.9683V16.7493C155.95 15.6939 155.455 14.8391 154.59 14.1847C153.746 13.5092 152.585 13.1715 151.108 13.1715C148.724 13.1715 147.532 14.8707 147.532 18.2691C147.532 20.2533 147.944 21.9208 148.766 23.2718C149.589 24.6016 150.771 25.2665 152.311 25.2665Z" fill="#03AD81"/>
    <path d="M162.09 27.6412H156.077V25.3615L153.134 27.7045C152.459 27.8734 151.646 27.9578 150.697 27.9578C149.304 27.9578 148.049 27.5989 146.931 26.8813C145.834 26.1425 144.969 25.1504 144.336 23.905C143.724 22.6596 143.418 21.2876 143.418 19.7889C143.418 18.1636 143.914 16.6438 144.905 15.2296C145.897 13.7942 147.131 12.6544 148.608 11.81C150.106 10.9446 151.551 10.5119 152.944 10.5119C154.104 10.5119 155.159 10.8391 156.109 11.4934V4.97098L153.292 3.00791V2.02639L158.704 0H159.906V25.2665L162.723 26.3747L162.09 27.6412ZM152.311 25.2665C152.944 25.2665 153.545 25.1821 154.115 25.0132C154.706 24.8232 155.36 24.4749 156.077 23.9683V16.7493C155.95 15.6939 155.455 14.8391 154.59 14.1847C153.746 13.5092 152.585 13.1715 151.108 13.1715C148.724 13.1715 147.532 14.8707 147.532 18.2691C147.532 20.2533 147.944 21.9208 148.766 23.2718C149.589 24.6016 150.771 25.2665 152.311 25.2665Z" fill="url(#paint7_linear_163_339)"/>
    <path d="M181.217 24.5066C181.217 25.3509 181.238 26.1319 181.281 26.8496C181.344 27.5462 181.418 28.0211 181.502 28.2744L175.426 36L174.223 35.0501C175.426 33.5303 176.227 32.2427 176.628 31.1873C177.05 30.1319 177.261 28.8338 177.261 27.2929V5.25594L173.337 4.02111L173.97 2.75462H184.224V3.73615L181.217 6.07915V24.5066Z" fill="#03AD81"/>
    <path d="M181.217 24.5066C181.217 25.3509 181.238 26.1319 181.281 26.8496C181.344 27.5462 181.418 28.0211 181.502 28.2744L175.426 36L174.223 35.0501C175.426 33.5303 176.227 32.2427 176.628 31.1873C177.05 30.1319 177.261 28.8338 177.261 27.2929V5.25594L173.337 4.02111L173.97 2.75462H184.224V3.73615L181.217 6.07915V24.5066Z" fill="url(#paint8_linear_163_339)"/>
    <path d="M197.542 10.5119C198.935 10.5119 200.179 10.8813 201.276 11.6201C202.395 12.3377 203.26 13.3193 203.872 14.5646C204.505 15.81 204.821 17.1821 204.821 18.6807C204.821 20.3061 204.325 21.8364 203.334 23.2718C202.342 24.686 201.097 25.8259 199.599 26.6913C198.122 27.5356 196.688 27.9578 195.295 27.9578C193.903 27.9578 192.647 27.5989 191.529 26.8813C190.432 26.1425 189.567 25.1504 188.934 23.905C188.322 22.6596 188.016 21.2876 188.016 19.7889C188.016 18.1636 188.512 16.6438 189.504 15.2296C190.495 13.7942 191.729 12.6544 193.206 11.81C194.704 10.9446 196.15 10.5119 197.542 10.5119ZM195.706 13.1715C193.322 13.1715 192.13 14.8707 192.13 18.2691C192.13 20.2744 192.563 21.9525 193.428 23.3034C194.293 24.6332 195.527 25.2982 197.131 25.2982C199.515 25.2982 200.707 23.5884 200.707 20.1689C200.707 18.1847 200.274 16.5277 199.409 15.1979C198.544 13.847 197.31 13.1715 195.706 13.1715Z" fill="#03AD81"/>
    <path d="M197.542 10.5119C198.935 10.5119 200.179 10.8813 201.276 11.6201C202.395 12.3377 203.26 13.3193 203.872 14.5646C204.505 15.81 204.821 17.1821 204.821 18.6807C204.821 20.3061 204.325 21.8364 203.334 23.2718C202.342 24.686 201.097 25.8259 199.599 26.6913C198.122 27.5356 196.688 27.9578 195.295 27.9578C193.903 27.9578 192.647 27.5989 191.529 26.8813C190.432 26.1425 189.567 25.1504 188.934 23.905C188.322 22.6596 188.016 21.2876 188.016 19.7889C188.016 18.1636 188.512 16.6438 189.504 15.2296C190.495 13.7942 191.729 12.6544 193.206 11.81C194.704 10.9446 196.15 10.5119 197.542 10.5119ZM195.706 13.1715C193.322 13.1715 192.13 14.8707 192.13 18.2691C192.13 20.2744 192.563 21.9525 193.428 23.3034C194.293 24.6332 195.527 25.2982 197.131 25.2982C199.515 25.2982 200.707 23.5884 200.707 20.1689C200.707 18.1847 200.274 16.5277 199.409 15.1979C198.544 13.847 197.31 13.1715 195.706 13.1715Z" fill="url(#paint9_linear_163_339)"/>
    <path d="M226.796 27.6412H220.783V24.3483L216.764 27.7045C216.321 27.8734 215.741 27.9578 215.023 27.9578C213.589 27.9578 212.449 27.5251 211.605 26.6596C210.761 25.7731 210.339 24.5805 210.339 23.0818V15.5145L207.523 13.8681V12.8865L212.934 10.2269H214.137V21.4987C214.137 22.6596 214.316 23.4723 214.675 23.9367C215.034 24.4011 215.677 24.6332 216.606 24.6332C217.26 24.6332 217.903 24.5172 218.536 24.285C219.169 24.0317 219.918 23.5462 220.783 22.8285V15.5145L217.966 13.8681V12.8865L223.378 10.2269H224.581V25.2665L227.429 26.3747L226.796 27.6412Z" fill="#03AD81"/>
    <path d="M226.796 27.6412H220.783V24.3483L216.764 27.7045C216.321 27.8734 215.741 27.9578 215.023 27.9578C213.589 27.9578 212.449 27.5251 211.605 26.6596C210.761 25.7731 210.339 24.5805 210.339 23.0818V15.5145L207.523 13.8681V12.8865L212.934 10.2269H214.137V21.4987C214.137 22.6596 214.316 23.4723 214.675 23.9367C215.034 24.4011 215.677 24.6332 216.606 24.6332C217.26 24.6332 217.903 24.5172 218.536 24.285C219.169 24.0317 219.918 23.5462 220.783 22.8285V15.5145L217.966 13.8681V12.8865L223.378 10.2269H224.581V25.2665L227.429 26.3747L226.796 27.6412Z" fill="url(#paint10_linear_163_339)"/>
    <path d="M241.709 10.5435C242.405 10.5435 243.017 10.7335 243.545 11.1135C244.072 11.4934 244.484 12.0211 244.779 12.6966L242.69 15.3245H241.488C241.403 14.7968 241.245 14.4274 241.013 14.2164C240.802 13.9842 240.507 13.8681 240.127 13.8681C239.663 13.8681 239.167 13.9947 238.639 14.248C238.133 14.4802 237.553 14.934 236.899 15.6095V25.0449L241.329 26.4063L240.696 27.6728H230.284V26.6913L233.101 24.4749V15.5145L230.284 13.8681V12.8865L235.696 10.2269L236.677 14.1214L239.969 10.7652C240.412 10.5963 240.992 10.5119 241.709 10.5119V10.5435Z" fill="#03AD81"/>
    <path d="M241.709 10.5435C242.405 10.5435 243.017 10.7335 243.545 11.1135C244.072 11.4934 244.484 12.0211 244.779 12.6966L242.69 15.3245H241.488C241.403 14.7968 241.245 14.4274 241.013 14.2164C240.802 13.9842 240.507 13.8681 240.127 13.8681C239.663 13.8681 239.167 13.9947 238.639 14.248C238.133 14.4802 237.553 14.934 236.899 15.6095V25.0449L241.329 26.4063L240.696 27.6728H230.284V26.6913L233.101 24.4749V15.5145L230.284 13.8681V12.8865L235.696 10.2269L236.677 14.1214L239.969 10.7652C240.412 10.5963 240.992 10.5119 241.709 10.5119V10.5435Z" fill="url(#paint11_linear_163_339)"/>
    <path d="M266.285 27.6728H260.272V17.0026C260.272 15.8417 260.093 15.029 259.734 14.5646C259.376 14.1003 258.732 13.8681 257.804 13.8681C257.108 13.8681 256.411 13.9947 255.715 14.248C255.04 14.5013 254.238 14.9868 253.31 15.7045V25.2982L256.158 26.4063L255.525 27.6728H246.695V26.6913L249.512 24.4749V15.5145L246.695 13.8681V12.8865L252.107 10.2269L253.152 14.343L257.646 10.7652C258.089 10.5963 258.669 10.5119 259.386 10.5119C260.821 10.5119 261.96 10.9551 262.804 11.8417C263.648 12.7071 264.07 13.8892 264.07 15.3879V25.2665L266.918 26.4063L266.285 27.6728Z" fill="#03AD81"/>
    <path d="M266.285 27.6728H260.272V17.0026C260.272 15.8417 260.093 15.029 259.734 14.5646C259.376 14.1003 258.732 13.8681 257.804 13.8681C257.108 13.8681 256.411 13.9947 255.715 14.248C255.04 14.5013 254.238 14.9868 253.31 15.7045V25.2982L256.158 26.4063L255.525 27.6728H246.695V26.6913L249.512 24.4749V15.5145L246.695 13.8681V12.8865L252.107 10.2269L253.152 14.343L257.646 10.7652C258.089 10.5963 258.669 10.5119 259.386 10.5119C260.821 10.5119 261.96 10.9551 262.804 11.8417C263.648 12.7071 264.07 13.8892 264.07 15.3879V25.2665L266.918 26.4063L266.285 27.6728Z" fill="url(#paint12_linear_163_339)"/>
    <path d="M280.234 27.7045C279.39 27.8734 278.377 27.9578 277.196 27.9578C275.803 27.9578 274.548 27.5989 273.43 26.8813C272.333 26.1425 271.468 25.1504 270.835 23.905C270.223 22.6596 269.917 21.2876 269.917 19.7889C269.917 18.1636 270.413 16.6438 271.404 15.2296C272.396 13.7942 273.63 12.6544 275.107 11.81C276.605 10.9446 278.05 10.5119 279.443 10.5119C281.447 10.5119 282.998 11.3034 284.095 12.8865C285.213 14.4697 285.773 16.5594 285.773 19.1557H274.063C274.189 20.9499 274.675 22.4169 275.519 23.5567C276.384 24.6966 277.555 25.2665 279.032 25.2665C280.403 25.2665 282.355 24.2005 284.886 22.0686L285.836 23.2718L280.234 27.7045ZM277.607 13.1715C275.329 13.1715 274.137 14.7335 274.031 17.8575H281.437C281.247 16.7177 281.046 15.8522 280.835 15.2612C280.646 14.6491 280.297 14.153 279.791 13.7731C279.306 13.372 278.578 13.1715 277.607 13.1715Z" fill="#03AD81"/>
    <path d="M280.234 27.7045C279.39 27.8734 278.377 27.9578 277.196 27.9578C275.803 27.9578 274.548 27.5989 273.43 26.8813C272.333 26.1425 271.468 25.1504 270.835 23.905C270.223 22.6596 269.917 21.2876 269.917 19.7889C269.917 18.1636 270.413 16.6438 271.404 15.2296C272.396 13.7942 273.63 12.6544 275.107 11.81C276.605 10.9446 278.05 10.5119 279.443 10.5119C281.447 10.5119 282.998 11.3034 284.095 12.8865C285.213 14.4697 285.773 16.5594 285.773 19.1557H274.063C274.189 20.9499 274.675 22.4169 275.519 23.5567C276.384 24.6966 277.555 25.2665 279.032 25.2665C280.403 25.2665 282.355 24.2005 284.886 22.0686L285.836 23.2718L280.234 27.7045ZM277.607 13.1715C275.329 13.1715 274.137 14.7335 274.031 17.8575H281.437C281.247 16.7177 281.046 15.8522 280.835 15.2612C280.646 14.6491 280.297 14.153 279.791 13.7731C279.306 13.372 278.578 13.1715 277.607 13.1715Z" fill="url(#paint13_linear_163_339)"/>
    <path d="M306.488 11.81L298.482 27.6412L291.899 36L290.696 35.0501C291.899 33.7625 292.806 32.6332 293.418 31.6623C294.051 30.6913 294.494 29.7098 294.747 28.7177C295 27.7467 295.127 26.5858 295.127 25.2348L291.139 15.5778L288.196 13.8681V12.8865L293.608 10.2269L294.81 15.0079L298.671 24.4433L303.134 15.1662L298.925 12.095L299.558 10.8285H306.488V11.81Z" fill="#03AD81"/>
    <path d="M306.488 11.81L298.482 27.6412L291.899 36L290.696 35.0501C291.899 33.7625 292.806 32.6332 293.418 31.6623C294.051 30.6913 294.494 29.7098 294.747 28.7177C295 27.7467 295.127 26.5858 295.127 25.2348L291.139 15.5778L288.196 13.8681V12.8865L293.608 10.2269L294.81 15.0079L298.671 24.4433L303.134 15.1662L298.925 12.095L299.558 10.8285H306.488V11.81Z" fill="url(#paint14_linear_163_339)"/>
    <path d="M0.316477 35.7175H168.585L175.426 35.9976L174.221 35.0477L168.756 34.451H0.316477V35.7175Z" fill="#03AD81"/>
    <path d="M0.316477 35.7175H168.585L175.426 35.9976L174.221 35.0477L168.756 34.451H0.316477V35.7175Z" fill="url(#paint15_linear_163_339)"/>
    <path d="M311 2.75218H186.941L186.941 3.73858L306.985 4.01867L309.357 6.08889L311 2.75218Z" fill="#03AD81"/>
    <path d="M311 2.75218H186.941L186.941 3.73858L306.985 4.01867L309.357 6.08889L311 2.75218Z" fill="url(#paint16_linear_163_339)"/>
    <path fill-rule="evenodd" clip-rule="evenodd" d="M197.798 6.8619C198.162 7.07254 198.407 7.46503 198.407 7.91557C198.407 8.58813 197.862 9.13335 197.19 9.13335C196.518 9.13335 195.973 8.58813 195.973 7.91557C195.973 7.46503 196.218 7.07254 196.581 6.8619V3.65334H197.798V6.8619ZM197.19 7.30668C196.854 7.30668 196.581 7.57929 196.581 7.91557C196.581 8.25185 196.854 8.52446 197.19 8.52446C197.526 8.52446 197.798 8.25185 197.798 7.91557C197.798 7.57929 197.526 7.30668 197.19 7.30668Z" fill="#03AD81"/>
    <path fill-rule="evenodd" clip-rule="evenodd" d="M197.798 6.8619C198.162 7.07254 198.407 7.46503 198.407 7.91557C198.407 8.58813 197.862 9.13335 197.19 9.13335C196.518 9.13335 195.973 8.58813 195.973 7.91557C195.973 7.46503 196.218 7.07254 196.581 6.8619V3.65334H197.798V6.8619ZM197.19 7.30668C196.854 7.30668 196.581 7.57929 196.581 7.91557C196.581 8.25185 196.854 8.52446 197.19 8.52446C197.526 8.52446 197.798 8.25185 197.798 7.91557C197.798 7.57929 197.526 7.30668 197.19 7.30668Z" fill="url(#paint17_linear_163_339)"/>
    <path fill-rule="evenodd" clip-rule="evenodd" d="M279.352 6.8619C279.716 7.07254 279.961 7.46503 279.961 7.91557C279.961 8.58813 279.416 9.13335 278.744 9.13335C278.071 9.13335 277.526 8.58813 277.526 7.91557C277.526 7.46503 277.771 7.07254 278.135 6.8619V3.65334H279.352V6.8619ZM278.744 7.30668C278.408 7.30668 278.135 7.57929 278.135 7.91557C278.135 8.25185 278.408 8.52446 278.744 8.52446C279.08 8.52446 279.352 8.25185 279.352 7.91557C279.352 7.57929 279.08 7.30668 278.744 7.30668Z" fill="#03AD81"/>
    <path fill-rule="evenodd" clip-rule="evenodd" d="M279.352 6.8619C279.716 7.07254 279.961 7.46503 279.961 7.91557C279.961 8.58813 279.416 9.13335 278.744 9.13335C278.071 9.13335 277.526 8.58813 277.526 7.91557C277.526 7.46503 277.771 7.07254 278.135 6.8619V3.65334H279.352V6.8619ZM278.744 7.30668C278.408 7.30668 278.135 7.57929 278.135 7.91557C278.135 8.25185 278.408 8.52446 278.744 8.52446C279.08 8.52446 279.352 8.25185 279.352 7.91557C279.352 7.57929 279.08 7.30668 278.744 7.30668Z" fill="url(#paint18_linear_163_339)"/>
    <path fill-rule="evenodd" clip-rule="evenodd" d="M237.967 6.8619C238.33 7.07254 238.575 7.46503 238.575 7.91557C238.575 8.58813 238.03 9.13335 237.358 9.13335C236.686 9.13335 236.141 8.58813 236.141 7.91557C236.141 7.46503 236.386 7.07254 236.75 6.8619V3.65334H237.967V6.8619ZM237.358 7.30668C237.022 7.30668 236.75 7.57929 236.75 7.91557C236.75 8.25185 237.022 8.52446 237.358 8.52446C237.694 8.52446 237.967 8.25185 237.967 7.91557C237.967 7.57929 237.694 7.30668 237.358 7.30668Z" fill="#03AD81"/>
    <path fill-rule="evenodd" clip-rule="evenodd" d="M237.967 6.8619C238.33 7.07254 238.575 7.46503 238.575 7.91557C238.575 8.58813 238.03 9.13335 237.358 9.13335C236.686 9.13335 236.141 8.58813 236.141 7.91557C236.141 7.46503 236.386 7.07254 236.75 6.8619V3.65334H237.967V6.8619ZM237.358 7.30668C237.022 7.30668 236.75 7.57929 236.75 7.91557C236.75 8.25185 237.022 8.52446 237.358 8.52446C237.694 8.52446 237.967 8.25185 237.967 7.91557C237.967 7.57929 237.694 7.30668 237.358 7.30668Z" fill="url(#paint19_linear_163_339)"/>
    <defs>
        <linearGradient id="paint0_linear_163_339" x1="0" y1="18" x2="311" y2="18" gradientUnits="userSpaceOnUse">
            <stop stop-color="#F79681" offset=""/>
            <stop offset="1" stop-color="#219A96"/>
        </linearGradient>
        <linearGradient id="paint1_linear_163_339" x1="0" y1="18" x2="311" y2="18" gradientUnits="userSpaceOnUse">
            <stop stop-color="#F79681" offset=""/>
            <stop offset="1" stop-color="#219A96"/>
        </linearGradient>
        <linearGradient id="paint2_linear_163_339" x1="0" y1="18" x2="311" y2="18" gradientUnits="userSpaceOnUse">
            <stop stop-color="#F79681" offset=""/>
            <stop offset="1" stop-color="#219A96"/>
        </linearGradient>
        <linearGradient id="paint3_linear_163_339" x1="0" y1="18" x2="311" y2="18" gradientUnits="userSpaceOnUse">
            <stop stop-color="#F79681" offset=""/>
            <stop offset="1" stop-color="#219A96"/>
        </linearGradient>
        <linearGradient id="paint4_linear_163_339" x1="0" y1="18" x2="311" y2="18" gradientUnits="userSpaceOnUse">
            <stop stop-color="#F79681" offset=""/>
            <stop offset="1" stop-color="#219A96"/>
        </linearGradient>
        <linearGradient id="paint5_linear_163_339" x1="0" y1="18" x2="311" y2="18" gradientUnits="userSpaceOnUse">
            <stop stop-color="#F79681" offset=""/>
            <stop offset="1" stop-color="#219A96"/>
        </linearGradient>
        <linearGradient id="paint6_linear_163_339" x1="0" y1="18" x2="311" y2="18" gradientUnits="userSpaceOnUse">
            <stop stop-color="#F79681" offset=""/>
            <stop offset="1" stop-color="#219A96"/>
        </linearGradient>
        <linearGradient id="paint7_linear_163_339" x1="0" y1="18" x2="311" y2="18" gradientUnits="userSpaceOnUse">
            <stop stop-color="#F79681" offset=""/>
            <stop offset="1" stop-color="#219A96"/>
        </linearGradient>
        <linearGradient id="paint8_linear_163_339" x1="0" y1="18" x2="311" y2="18" gradientUnits="userSpaceOnUse">
            <stop stop-color="#F79681" offset=""/>
            <stop offset="1" stop-color="#219A96"/>
        </linearGradient>
        <linearGradient id="paint9_linear_163_339" x1="0" y1="18" x2="311" y2="18" gradientUnits="userSpaceOnUse">
            <stop stop-color="#F79681" offset=""/>
            <stop offset="1" stop-color="#219A96"/>
        </linearGradient>
        <linearGradient id="paint10_linear_163_339" x1="0" y1="18" x2="311" y2="18" gradientUnits="userSpaceOnUse">
            <stop stop-color="#F79681" offset=""/>
            <stop offset="1" stop-color="#219A96"/>
        </linearGradient>
        <linearGradient id="paint11_linear_163_339" x1="0" y1="18" x2="311" y2="18" gradientUnits="userSpaceOnUse">
            <stop stop-color="#F79681" offset=""/>
            <stop offset="1" stop-color="#219A96"/>
        </linearGradient>
        <linearGradient id="paint12_linear_163_339" x1="0" y1="18" x2="311" y2="18" gradientUnits="userSpaceOnUse">
            <stop stop-color="#F79681" offset=""/>
            <stop offset="1" stop-color="#219A96"/>
        </linearGradient>
        <linearGradient id="paint13_linear_163_339" x1="0" y1="18" x2="311" y2="18" gradientUnits="userSpaceOnUse">
            <stop stop-color="#F79681" offset=""/>
            <stop offset="1" stop-color="#219A96"/>
        </linearGradient>
        <linearGradient id="paint14_linear_163_339" x1="0" y1="18" x2="311" y2="18" gradientUnits="userSpaceOnUse">
            <stop stop-color="#F79681" offset=""/>
            <stop offset="1" stop-color="#219A96"/>
        </linearGradient>
        <linearGradient id="paint15_linear_163_339" x1="0" y1="18" x2="311" y2="18" gradientUnits="userSpaceOnUse">
            <stop stop-color="#F79681" offset=""/>
            <stop offset="1" stop-color="#219A96"/>
        </linearGradient>
        <linearGradient id="paint16_linear_163_339" x1="0" y1="18" x2="311" y2="18" gradientUnits="userSpaceOnUse">
            <stop stop-color="#F79681" offset=""/>
            <stop offset="1" stop-color="#219A96"/>
        </linearGradient>
        <linearGradient id="paint17_linear_163_339" x1="0" y1="18" x2="311" y2="18" gradientUnits="userSpaceOnUse">
            <stop stop-color="#F79681" offset=""/>
            <stop offset="1" stop-color="#219A96"/>
        </linearGradient>
        <linearGradient id="paint18_linear_163_339" x1="0" y1="18" x2="311" y2="18" gradientUnits="userSpaceOnUse">
            <stop stop-color="#F79681" offset=""/>
            <stop offset="1" stop-color="#219A96"/>
        </linearGradient>
        <linearGradient id="paint19_linear_163_339" x1="0" y1="18" x2="311" y2="18" gradientUnits="userSpaceOnUse">
            <stop stop-color="#F79681" offset=""/>
            <stop offset="1" stop-color="#219A96"/>
        </linearGradient>
    </defs>
</svg>

