<svg xmlns="http://www.w3.org/2000/svg" width="24" height="24" fill="none" viewBox="0 0 24 24">
    <path fill="currentColor" fill-rule="evenodd" d="M17.5 12a5.5 5.5 0 1 0 0-11 5.5 5.5 0 0 0 0 11m0-8.993a.5.5 0 0 1 .5.5V6h2.493a.5.5 0 0 1 0 1H18v2.493a.5.5 0 0 1-1 0V7h-2.493a.5.5 0 0 1 0-1H17V3.507a.5.5 0 0 1 .5-.5" clip-rule="evenodd"/>
    <path fill="currentColor" d="M4 6.25A3.75 3.75 0 0 1 7.75 2.5h3.31a.75.75 0 0 1 0 1.5H7.75A2.25 2.25 0 0 0 5.5 6.25v13.666l5.544-3.383.002-.002a1.84 1.84 0 0 1 1.798-.061l.11.061.002.002 5.544 3.383V13.5a.75.75 0 0 1 1.5 0v6.622a1.394 1.394 0 0 1-2.128 1.169l-5.696-3.477-.084-.037a.34.34 0 0 0-.268.037L6.127 21.29A1.393 1.393 0 0 1 4 20.122zm1.394 13.855.002-.002-.002-.005zm.002-.002-.002.002.002-.003zm0-.001-.002.003v-.007z"/>
</svg>