<svg xmlns="http://www.w3.org/2000/svg" width="24" height="24" fill="none" viewBox="0 0 24 24">
    <path fill="currentColor" d="M2.25 19V5A2.75 2.75 0 0 1 5 2.25h7a.75.75 0 0 1 0 1.5H5A1.25 1.25 0 0 0 3.75 5v14A1.25 1.25 0 0 0 5 20.25h14A1.25 1.25 0 0 0 20.25 19v-7a.75.75 0 0 1 1.5 0v7A2.75 2.75 0 0 1 19 21.75H5A2.75 2.75 0 0 1 2.25 19"/>
    <path fill="currentColor" d="M21.246 4.125a1.372 1.372 0 0 0-2.34-.97L9.891 12.17c-.112.11-.2.242-.263.385l-.053.147-.712 2.434 2.435-.711v-.001a1.3 1.3 0 0 0 .416-.212l.117-.104 9.013-9.013c.257-.258.401-.607.401-.97m1.5 0c0 .761-.302 1.492-.84 2.03l-9.014 9.015c-.326.326-.73.565-1.172.694l-2.873.84h-.001a1.251 1.251 0 0 1-1.55-1.55l.84-2.874.054-.164a2.75 2.75 0 0 1 .642-1.008l9.013-9.013a2.871 2.871 0 0 1 4.901 2.03"/>
</svg>