<svg xmlns="http://www.w3.org/2000/svg" width="24" height="24" fill="none" viewBox="0 0 24 24">
    <path fill="currentColor" d="M19 18.5V20H5v-1.5zm1.5-1.5V7A1.5 1.5 0 0 0 19 5.5H5A1.5 1.5 0 0 0 3.5 7v10A1.5 1.5 0 0 0 5 18.5V20l-.154-.004A3 3 0 0 1 2 17V7a3 3 0 0 1 3-3h14a3 3 0 0 1 3 3v10a3 3 0 0 1-3 3v-1.5a1.5 1.5 0 0 0 1.5-1.5"/>
    <path fill="currentColor" d="M10.25 8a.75.75 0 0 1 0 1.5h-3.5a.75.75 0 0 1 0-1.5zM10.25 11.25a.75.75 0 0 1 0 1.5h-3.5a.75.75 0 0 1 0-1.5zM10.25 14.5a.75.75 0 0 1 0 1.5h-3.5a.75.75 0 0 1 0-1.5zM14.5 14.5h2v-5h-2zm3.5.5a1 1 0 0 1-1 1h-3l-.102-.005A1 1 0 0 1 13 15V9a1 1 0 0 1 1-1h3a1 1 0 0 1 1 1z"/>
</svg>